<svg width="30" height="30" fill="none" xmlns="http://www.w3.org/2000/svg"><g clip-path="url(#clip0)"><path d="M22.336.771L18.57.765c-4.23 0-6.964 2.805-6.964 7.146v3.294H7.821a.592.592 0 00-.592.592v4.774c0 .327.266.592.592.592h3.786v12.045c0 .327.265.592.592.592h4.94a.592.592 0 00.591-.592V17.163h4.427a.592.592 0 00.592-.592l.002-4.774a.593.593 0 00-.593-.592H17.73V8.412c0-1.342.32-2.023 2.069-2.023l2.536-.001a.592.592 0 00.592-.592V1.363a.592.592 0 00-.591-.592z" fill="#AABDFF"/></g><defs><clipPath id="clip0"><path fill="#fff" transform="translate(.56 .765)" d="M0 0h29.035v29.035H0z"/></clipPath></defs></svg>