<svg width="27" height="27" xmlns="http://www.w3.org/2000/svg"><path d="M13.43 6.92a6.74 6.74 0 00-6.74 6.741 6.74 6.74 0 006.74 6.74 6.74 6.74 0 006.74-6.74 6.74 6.74 0 00-6.74-6.74zm0 11.116a4.374 4.374 0 01-4.375-4.375 4.374 4.374 0 118.75 0 4.373 4.373 0 01-4.375 4.375z"/><path d="M18.842.614C16.425.501 10.439.507 8.02.614c-2.126.1-4 .613-5.512 2.125C-.02 5.265.304 8.669.304 13.66c0 5.11-.284 8.435 2.204 10.923 2.536 2.535 5.989 2.203 10.922 2.203 5.061 0 6.808.004 8.598-.69 2.433-.944 4.27-3.119 4.45-7.025.113-2.418.107-8.403 0-10.822C26.26 3.638 23.785.842 18.841.614zm3.825 22.299c-1.656 1.656-3.953 1.508-9.269 1.508-5.472 0-7.667.08-9.268-1.525-1.845-1.835-1.51-4.783-1.51-9.252 0-6.048-.621-10.403 5.448-10.714 1.394-.05 1.805-.066 5.315-.066l.05.033c5.832 0 10.409-.61 10.683 5.458.063 1.384.077 1.8.077 5.305-.001 5.41.102 7.617-1.526 9.253z"/><path d="M20.438 8.23a1.575 1.575 0 100-3.15 1.575 1.575 0 000 3.15z"/></svg>