<svg width="36" height="36" fill="none" xmlns="http://www.w3.org/2000/svg"><g clip-path="url(#clip0)"><path d="M34.459 24.28c-1.07-1.283-2.33-2.379-3.522-3.542-1.075-1.049-1.143-1.657-.278-2.867.943-1.321 1.957-2.592 2.91-3.907.888-1.229 1.796-2.454 2.263-3.926.297-.936.035-1.35-.925-1.513a2.964 2.964 0 00-.505-.03l-5.696-.007c-.701-.01-1.089.295-1.337.917-.335.84-.68 1.68-1.08 2.491-.905 1.839-1.916 3.616-3.333 5.121-.313.332-.658.752-1.18.579-.654-.239-.847-1.315-.836-1.68l-.006-6.573c-.126-.94-.334-1.358-1.267-1.54h-5.916c-.79 0-1.186.305-1.608.8-.243.285-.317.47.183.565.982.186 1.536.821 1.682 1.806.236 1.573.22 3.153.084 4.732-.04.461-.12.922-.302 1.352-.286.677-.748.815-1.355.398-.55-.377-.936-.909-1.313-1.443-1.42-2.005-2.551-4.167-3.475-6.439-.266-.656-.726-1.054-1.422-1.065a145.162 145.162 0 00-5.127.001C.07 8.53-.236 9.03.182 9.961c1.861 4.14 3.933 8.165 6.637 11.831 1.389 1.882 2.983 3.543 5.042 4.72 2.334 1.335 4.846 1.736 7.492 1.613 1.24-.058 1.612-.38 1.669-1.616.039-.845.135-1.685.551-2.444.41-.745 1.029-.887 1.743-.423.357.232.658.527.943.838.697.763 1.37 1.55 2.093 2.287.908.924 1.984 1.47 3.336 1.358l5.235.001c.843-.055 1.28-1.09.796-2.03-.34-.66-.786-1.247-1.26-1.815z" fill="#AABDFF"/></g><defs><clipPath id="clip0"><path fill="#fff" d="M0 0h35.948v35.948H0z"/></clipPath></defs></svg>