<svg width="38" height="39" fill="none" xmlns="http://www.w3.org/2000/svg"><g clip-path="url(#clip0)"><path d="M37.524 19.417a1.795 1.795 0 00-.148-2.578L20.393 2.062c-.771-.67-2.007-.656-2.762.032L.591 17.627A1.784 1.784 0 00.509 20.2l.427.443c.709.733 1.855.82 2.558.194l1.273-1.134v16.603c0 1.019.83 1.844 1.854 1.844h6.642a1.848 1.848 0 001.854-1.844V24.692h8.472v11.615c-.014 1.018.718 1.843 1.742 1.843h7.039a1.848 1.848 0 001.854-1.843V19.938l.785.686c.434.378 1.343.075 2.032-.68l.483-.527z" fill="#E127CF"/></g><defs><clipPath id="clip0"><path fill="#fff" transform="translate(0 .966)" d="M0 0h38v37.786H0z"/></clipPath></defs></svg>