<svg width="24" height="42" fill="none" xmlns="http://www.w3.org/2000/svg"><path d="M24 39.248V1.854C24 .831 23.149 0 22.102 0H1.898C.851 0 0 .831 0 1.854v37.394c0 1.023.851 1.854 1.898 1.854h20.204c1.047 0 1.898-.831 1.898-1.854zm-1.035 0a.854.854 0 01-.863.843H1.898a.854.854 0 01-.863-.843V1.854c0-.465.387-.843.863-.843h20.204c.476 0 .863.378.863.843v37.394z" fill="#FFC700"/><path d="M21.593 3.724H2.407a.256.256 0 00-.26.252v32.551c0 .14.117.254.26.254h19.186c.143 0 .26-.114.26-.254V3.977a.256.256 0 00-.26-.253zm-.961 32.551H3.368a.695.695 0 01-.702-.686V4.916c0-.379.314-.686.702-.686h17.263c.388 0 .703.307.703.686V35.59a.694.694 0 01-.702.687zm-6.229 1.358H9.596a.256.256 0 00-.258.252v1.252c0 .14.116.253.258.253h4.807a.256.256 0 00.259-.253v-1.252a.255.255 0 00-.259-.252zm-.961 1.252h-2.884c-.388 0-.702-.168-.702-.374s.314-.373.702-.373h2.884c.388 0 .703.166.703.373 0 .206-.315.374-.703.374z" fill="#FFC700"/></svg>