<svg viewBox="0 0 125 168" xmlns="http://www.w3.org/2000/svg" xmlns:xlink="http://www.w3.org/1999/xlink"><style>:root&gt;svg{display:none}:root&gt;svg:target{display:block}</style><svg fill="none" viewBox="0 0 15 19" id="best--pin" xmlns="http://www.w3.org/2000/svg"><path clip-rule="evenodd" d="M13.902 7.52c0 4.258-6.112 10.45-6.112 10.45S1.677 11.779 1.677 7.52c0-3.918 3.159-6.192 6.113-6.192 2.954 0 6.112 2.274 6.112 6.193z" stroke="#B1BACB" stroke-width="2" stroke-linecap="round" stroke-linejoin="round"/><path clip-rule="evenodd" d="M7.79 9.095c.92 0 1.667-.745 1.667-1.664a1.666 1.666 0 00-3.334 0c0 .919.746 1.664 1.667 1.664z" stroke="#B1BACB" stroke-width="2" stroke-linecap="round" stroke-linejoin="round"/></svg><svg fill="none" viewBox="0 0 30 30" id="footer--face" xmlns="http://www.w3.org/2000/svg"><g clip-path="url(#bclip0)"><path d="M22.336.771L18.57.765c-4.23 0-6.964 2.805-6.964 7.146v3.294H7.821a.592.592 0 00-.592.592v4.774c0 .327.266.592.592.592h3.786v12.045c0 .327.265.592.592.592h4.94a.592.592 0 00.591-.592V17.163h4.427a.592.592 0 00.592-.592l.002-4.774a.593.593 0 00-.593-.592H17.73V8.412c0-1.342.32-2.023 2.069-2.023l2.536-.001a.592.592 0 00.592-.592V1.363a.592.592 0 00-.591-.592z" fill="#AABDFF"/></g><defs><clipPath id="bclip0"><path fill="#fff" transform="translate(.56 .765)" d="M0 0h29.035v29.035H0z"/></clipPath></defs></svg><svg fill="none" viewBox="0 0 27 27" id="footer--inst" xmlns="http://www.w3.org/2000/svg"><g clip-path="url(#cclip0)" fill="#AABDFF"><path d="M13.43 6.92a6.74 6.74 0 00-6.74 6.741 6.74 6.74 0 006.74 6.74 6.74 6.74 0 006.74-6.74 6.74 6.74 0 00-6.74-6.74zm0 11.116a4.374 4.374 0 01-4.375-4.375 4.374 4.374 0 118.75 0 4.373 4.373 0 01-4.375 4.375z"/><path d="M18.842.614C16.425.501 10.439.507 8.02.614c-2.126.1-4 .613-5.512 2.125C-.02 5.265.304 8.669.304 13.66c0 5.11-.284 8.435 2.204 10.923 2.536 2.535 5.989 2.203 10.922 2.203 5.061 0 6.808.004 8.598-.69 2.433-.944 4.27-3.119 4.45-7.025.113-2.418.107-8.403 0-10.822C26.26 3.638 23.785.842 18.841.614zm3.825 22.299c-1.656 1.656-3.953 1.508-9.269 1.508-5.472 0-7.667.08-9.268-1.525-1.845-1.835-1.51-4.783-1.51-9.252 0-6.048-.621-10.403 5.448-10.714 1.394-.05 1.805-.066 5.315-.066l.05.033c5.832 0 10.409-.61 10.683 5.458.063 1.384.077 1.8.077 5.305-.001 5.41.102 7.617-1.526 9.253z"/><path d="M20.438 8.23a1.575 1.575 0 100-3.15 1.575 1.575 0 000 3.15z"/></g><defs><clipPath id="cclip0"><path fill="#fff" transform="translate(.291 .53)" d="M0 0h26.27v26.27H0z"/></clipPath></defs></svg><svg fill="none" viewBox="0 0 30 29" id="footer--telega" xmlns="http://www.w3.org/2000/svg"><g clip-path="url(#dclip0)"><path d="M12.07 18.385l-.47 6.594c.671 0 .962-.288 1.31-.634l3.145-3.005 6.517 4.772c1.195.666 2.037.315 2.36-1.1L29.208 4.97v-.001c.38-1.767-.638-2.458-1.802-2.024L2.263 12.57c-1.716.666-1.69 1.622-.291 2.056l6.428 2 14.93-9.344c.704-.465 1.343-.207.817.258L12.069 18.385z" fill="#AABDFF"/></g><defs><clipPath id="dclip0"><path fill="#fff" transform="translate(.948 .457)" d="M0 0h28.343v28.343H0z"/></clipPath></defs></svg><svg fill="none" viewBox="0 0 36 36" id="footer--vk" xmlns="http://www.w3.org/2000/svg"><g clip-path="url(#eclip0)"><path d="M34.459 24.28c-1.07-1.283-2.33-2.379-3.522-3.542-1.075-1.049-1.143-1.657-.278-2.867.943-1.321 1.957-2.592 2.91-3.907.888-1.229 1.796-2.454 2.263-3.926.297-.936.035-1.35-.925-1.513a2.964 2.964 0 00-.505-.03l-5.696-.007c-.701-.01-1.089.295-1.337.917-.335.84-.68 1.68-1.08 2.491-.905 1.839-1.916 3.616-3.333 5.121-.313.332-.658.752-1.18.579-.654-.239-.847-1.315-.836-1.68l-.006-6.573c-.126-.94-.334-1.358-1.267-1.54h-5.916c-.79 0-1.186.305-1.608.8-.243.285-.317.47.183.565.982.186 1.536.821 1.682 1.806.236 1.573.22 3.153.084 4.732-.04.461-.12.922-.302 1.352-.286.677-.748.815-1.355.398-.55-.377-.936-.909-1.313-1.443-1.42-2.005-2.551-4.167-3.475-6.439-.266-.656-.726-1.054-1.422-1.065a145.162 145.162 0 00-5.127.001C.07 8.53-.236 9.03.182 9.961c1.861 4.14 3.933 8.165 6.637 11.831 1.389 1.882 2.983 3.543 5.042 4.72 2.334 1.335 4.846 1.736 7.492 1.613 1.24-.058 1.612-.38 1.669-1.616.039-.845.135-1.685.551-2.444.41-.745 1.029-.887 1.743-.423.357.232.658.527.943.838.697.763 1.37 1.55 2.093 2.287.908.924 1.984 1.47 3.336 1.358l5.235.001c.843-.055 1.28-1.09.796-2.03-.34-.66-.786-1.247-1.26-1.815z" fill="#AABDFF"/></g><defs><clipPath id="eclip0"><path fill="#fff" d="M0 0h35.948v35.948H0z"/></clipPath></defs></svg><svg fill="none" viewBox="0 0 125 168" id="how--line" xmlns="http://www.w3.org/2000/svg"><path d="M.5 167.281C101 167.281 71 .601 124.5.601" stroke="#fff"/></svg><svg fill="none" viewBox="0 0 24 24" id="sub--beginners" xmlns="http://www.w3.org/2000/svg"><path fill-rule="evenodd" clip-rule="evenodd" d="M18.818 14.125c-.616-.715-1.675-.678-2.503-.225A8.96 8.96 0 0112 15a8.96 8.96 0 01-4.315-1.1c-.828-.453-1.887-.49-2.503.225A8.965 8.965 0 003 20v1a2 2 0 002 2h14a2 2 0 002-2v-1a8.965 8.965 0 00-2.182-5.875z" fill="#FCFCFD"/><path d="M17 6A5 5 0 117 6a5 5 0 0110 0z" fill="#FCFCFD"/></svg><svg fill="none" viewBox="0 0 24 24" id="sub--medal" xmlns="http://www.w3.org/2000/svg"><path fill-rule="evenodd" clip-rule="evenodd" d="M12 24a8 8 0 100-16 8 8 0 000 16zm0-3a5 5 0 100-10 5 5 0 000 10z" fill="#FCFCFD"/><path d="M15 16a3 3 0 11-6 0 3 3 0 016 0zm1.584-8.89a.52.52 0 00.699-.206l2.923-5.43A1 1 0 0019.326 0h-3.732a1 1 0 00-.878.521L13.27 3.172a.5.5 0 000 .48l1.391 2.55a.514.514 0 00.3.244 9.937 9.937 0 011.623.664zm-9.167 0a.521.521 0 01-.7-.206l-2.923-5.43A1 1 0 014.674 0h3.732a1 1 0 01.878.521l2.575 4.72c.184.338-.068.754-.453.777a10.038 10.038 0 00-3.99 1.092z" fill="#FCFCFD"/></svg><svg fill="none" viewBox="0 0 24 24" id="sub--premium" xmlns="http://www.w3.org/2000/svg"><path d="M4.145 13.415L13.502.46c.618-.857 1.97-.293 1.796.75L14 9h5.044a1 1 0 01.811 1.585L10.499 23.54c-.62.857-1.971.293-1.797-.75L10 15H4.956a1 1 0 01-.81-1.585z" fill="#FCFCFD"/></svg><svg fill="none" viewBox="0 0 32 33" id="why--1" xmlns="http://www.w3.org/2000/svg"><g clip-path="url(#jclip0)"><path d="M11.01 33.225V22.216m0-5.744V3.55s8.517-2.98 12.028 0c3.95 3.353 3.95 9.57 0 12.923-3.511 2.98-12.029 0-12.029 0zm0 0v5.744m0 0H7h8.019" stroke="#6516E7" stroke-width="2"/></g><defs><clipPath id="jclip0"><path fill="#fff" d="M0 0h32v33H0z"/></clipPath></defs></svg><svg fill="none" viewBox="0 0 38 39" id="why--2" xmlns="http://www.w3.org/2000/svg"><g clip-path="url(#kclip0)"><path d="M37.524 19.417a1.795 1.795 0 00-.148-2.578L20.393 2.062c-.771-.67-2.007-.656-2.762.032L.591 17.627A1.784 1.784 0 00.509 20.2l.427.443c.709.733 1.855.82 2.558.194l1.273-1.134v16.603c0 1.019.83 1.844 1.854 1.844h6.642a1.848 1.848 0 001.854-1.844V24.692h8.472v11.615c-.014 1.018.718 1.843 1.742 1.843h7.039a1.848 1.848 0 001.854-1.843V19.938l.785.686c.434.378 1.343.075 2.032-.68l.483-.527z" fill="#E127CF"/></g><defs><clipPath id="kclip0"><path fill="#fff" transform="translate(0 .966)" d="M0 0h38v37.786H0z"/></clipPath></defs></svg><svg fill="none" viewBox="0 0 24 42" id="why--3" xmlns="http://www.w3.org/2000/svg"><path d="M24 39.248V1.854C24 .831 23.149 0 22.102 0H1.898C.851 0 0 .831 0 1.854v37.394c0 1.023.851 1.854 1.898 1.854h20.204c1.047 0 1.898-.831 1.898-1.854zm-1.035 0a.854.854 0 01-.863.843H1.898a.854.854 0 01-.863-.843V1.854c0-.465.387-.843.863-.843h20.204c.476 0 .863.378.863.843v37.394z" fill="#FFC700"/><path d="M21.593 3.724H2.407a.256.256 0 00-.26.252v32.551c0 .14.117.254.26.254h19.186c.143 0 .26-.114.26-.254V3.977a.256.256 0 00-.26-.253zm-.961 32.551H3.368a.695.695 0 01-.702-.686V4.916c0-.379.314-.686.702-.686h17.263c.388 0 .703.307.703.686V35.59a.694.694 0 01-.702.687zm-6.229 1.358H9.596a.256.256 0 00-.258.252v1.252c0 .14.116.253.258.253h4.807a.256.256 0 00.259-.253v-1.252a.255.255 0 00-.259-.252zm-.961 1.252h-2.884c-.388 0-.702-.168-.702-.374s.314-.373.702-.373h2.884c.388 0 .703.166.703.373 0 .206-.315.374-.703.374z" fill="#FFC700"/></svg><svg fill="none" viewBox="0 0 41 42" id="why--4" xmlns="http://www.w3.org/2000/svg"><path d="M20.5 6.441v15.413L31 31.798" stroke="#FF0303"/><path d="M40.5 21.357c0 10.98-8.952 19.885-20 19.885S.5 32.336.5 21.357c0-10.98 8.952-19.885 20-19.885s20 8.905 20 19.885z" stroke="#FF0303"/></svg><svg fill="none" viewBox="0 0 34 27" id="why--5" xmlns="http://www.w3.org/2000/svg"><rect x=".5" y=".691" width="33" height="18.888" rx="4.5" stroke="#19F549"/><path d="M16 20v6h-4 8" stroke="#19F549"/></svg></svg>